<?xml version="1.0" encoding="UTF-8" standalone="no"?>
<!DOCTYPE svg PUBLIC "-//W3C//DTD SVG 1.1//EN"
 "http://www.w3.org/Graphics/SVG/1.1/DTD/svg11.dtd">
<!-- Generated by graphviz version 9.0.0 (20230911.1827)
 -->
<!-- Pages: 1 -->
<svg width="2960pt" height="116pt"
 viewBox="0.00 0.00 2959.60 116.00" xmlns="http://www.w3.org/2000/svg" xmlns:xlink="http://www.w3.org/1999/xlink">
<g id="graph0" class="graph" transform="scale(1 1) rotate(0) translate(4 112)">
<polygon fill="white" stroke="none" points="-4,4 -4,-112 2955.6,-112 2955.6,4 -4,4"/>
<!-- Interest income -->
<g id="node1" class="node">
<title>Interest income</title>
<ellipse fill="none" stroke="black" cx="68.75" cy="-90" rx="68.75" ry="18"/>
<text text-anchor="middle" x="68.75" y="-84.95" font-family="Times,serif" font-size="14.00">Interest income</text>
</g>
<!-- $486 million -->
<g id="node2" class="node">
<title>$486 million</title>
<ellipse fill="none" stroke="black" cx="68.75" cy="-18" rx="59.03" ry="18"/>
<text text-anchor="middle" x="68.75" y="-12.95" font-family="Times,serif" font-size="14.00">$486 million</text>
</g>
<!-- Interest income&#45;&gt;$486 million -->
<g id="edge1" class="edge">
<title>Interest income&#45;&gt;$486 million</title>
<path fill="none" stroke="black" d="M68.75,-71.7C68.75,-64.41 68.75,-55.73 68.75,-47.54"/>
<polygon fill="black" stroke="black" points="72.25,-47.62 68.75,-37.62 65.25,-47.62 72.25,-47.62"/>
</g>
<!-- Interest expense -->
<g id="node3" class="node">
<title>Interest expense</title>
<ellipse fill="none" stroke="black" cx="226.75" cy="-90" rx="70.8" ry="18"/>
<text text-anchor="middle" x="226.75" y="-84.95" font-family="Times,serif" font-size="14.00">Interest expense</text>
</g>
<!-- $83 million -->
<g id="node4" class="node">
<title>$83 million</title>
<ellipse fill="none" stroke="black" cx="226.75" cy="-18" rx="54.42" ry="18"/>
<text text-anchor="middle" x="226.75" y="-12.95" font-family="Times,serif" font-size="14.00">$83 million</text>
</g>
<!-- Interest expense&#45;&gt;$83 million -->
<g id="edge2" class="edge">
<title>Interest expense&#45;&gt;$83 million</title>
<path fill="none" stroke="black" d="M226.75,-71.7C226.75,-64.41 226.75,-55.73 226.75,-47.54"/>
<polygon fill="black" stroke="black" points="230.25,-47.62 226.75,-37.62 223.25,-47.62 230.25,-47.62"/>
</g>
<!-- Foreign currency exchange gain (loss) -->
<g id="node5" class="node">
<title>Foreign currency exchange gain (loss)</title>
<ellipse fill="none" stroke="black" cx="468.75" cy="-90" rx="153.2" ry="18"/>
<text text-anchor="middle" x="468.75" y="-84.95" font-family="Times,serif" font-size="14.00">Foreign currency exchange gain (loss)</text>
</g>
<!-- $260 million -->
<g id="node6" class="node">
<title>$260 million</title>
<ellipse fill="none" stroke="black" cx="468.75" cy="-18" rx="59.03" ry="18"/>
<text text-anchor="middle" x="468.75" y="-12.95" font-family="Times,serif" font-size="14.00">$260 million</text>
</g>
<!-- Foreign currency exchange gain (loss)&#45;&gt;$260 million -->
<g id="edge3" class="edge">
<title>Foreign currency exchange gain (loss)&#45;&gt;$260 million</title>
<path fill="none" stroke="black" d="M468.75,-71.7C468.75,-64.41 468.75,-55.73 468.75,-47.54"/>
<polygon fill="black" stroke="black" points="472.25,-47.62 468.75,-37.62 465.25,-47.62 472.25,-47.62"/>
</g>
<!-- Gain (loss) on debt securities -->
<g id="node7" class="node">
<title>Gain (loss) on debt securities</title>
<ellipse fill="none" stroke="black" cx="759.75" cy="-90" rx="119.42" ry="18"/>
<text text-anchor="middle" x="759.75" y="-84.95" font-family="Times,serif" font-size="14.00">Gain (loss) on debt securities</text>
</g>
<!-- $790 million -->
<g id="node8" class="node">
<title>$790 million</title>
<ellipse fill="none" stroke="black" cx="759.75" cy="-18" rx="59.03" ry="18"/>
<text text-anchor="middle" x="759.75" y="-12.95" font-family="Times,serif" font-size="14.00">$790 million</text>
</g>
<!-- Gain (loss) on debt securities&#45;&gt;$790 million -->
<g id="edge4" class="edge">
<title>Gain (loss) on debt securities&#45;&gt;$790 million</title>
<path fill="none" stroke="black" d="M759.75,-71.7C759.75,-64.41 759.75,-55.73 759.75,-47.54"/>
<polygon fill="black" stroke="black" points="763.25,-47.62 759.75,-37.62 756.25,-47.62 763.25,-47.62"/>
</g>
<!-- Gain (loss) on equity securities -->
<g id="node9" class="node">
<title>Gain (loss) on equity securities</title>
<ellipse fill="none" stroke="black" cx="1023.8" cy="-90" rx="126.59" ry="18"/>
<text text-anchor="middle" x="1023.8" y="-84.95" font-family="Times,serif" font-size="14.00">Gain (loss) on equity securities</text>
</g>
<!-- $251 million -->
<g id="node10" class="node">
<title>$251 million</title>
<ellipse fill="none" stroke="black" cx="1023.8" cy="-18" rx="59.03" ry="18"/>
<text text-anchor="middle" x="1023.8" y="-12.95" font-family="Times,serif" font-size="14.00">$251 million</text>
</g>
<!-- Gain (loss) on equity securities&#45;&gt;$251 million -->
<g id="edge5" class="edge">
<title>Gain (loss) on equity securities&#45;&gt;$251 million</title>
<path fill="none" stroke="black" d="M1023.8,-71.7C1023.8,-64.41 1023.8,-55.73 1023.8,-47.54"/>
<polygon fill="black" stroke="black" points="1027.3,-47.62 1023.8,-37.62 1020.3,-47.62 1027.3,-47.62"/>
</g>
<!-- Performance fees -->
<g id="node11" class="node">
<title>Performance fees</title>
<ellipse fill="none" stroke="black" cx="1244.8" cy="-90" rx="75.92" ry="18"/>
<text text-anchor="middle" x="1244.8" y="-84.95" font-family="Times,serif" font-size="14.00">Performance fees</text>
</g>
<!-- $318 million -->
<g id="node12" class="node">
<title>$318 million</title>
<ellipse fill="none" stroke="black" cx="1244.8" cy="-18" rx="59.03" ry="18"/>
<text text-anchor="middle" x="1244.8" y="-12.95" font-family="Times,serif" font-size="14.00">$318 million</text>
</g>
<!-- Performance fees&#45;&gt;$318 million -->
<g id="edge6" class="edge">
<title>Performance fees&#45;&gt;$318 million</title>
<path fill="none" stroke="black" d="M1244.8,-71.7C1244.8,-64.41 1244.8,-55.73 1244.8,-47.54"/>
<polygon fill="black" stroke="black" points="1248.3,-47.62 1244.8,-37.62 1241.3,-47.62 1248.3,-47.62"/>
</g>
<!-- Income (loss) and impairment from equity method investments -->
<g id="node13" class="node">
<title>Income (loss) and impairment from equity method investments</title>
<ellipse fill="none" stroke="black" cx="1586.8" cy="-90" rx="248.4" ry="18"/>
<text text-anchor="middle" x="1586.8" y="-84.95" font-family="Times,serif" font-size="14.00">Income (loss) and impairment from equity method investments</text>
</g>
<!-- $118 million -->
<g id="node14" class="node">
<title>$118 million</title>
<ellipse fill="none" stroke="black" cx="1586.8" cy="-18" rx="59.03" ry="18"/>
<text text-anchor="middle" x="1586.8" y="-12.95" font-family="Times,serif" font-size="14.00">$118 million</text>
</g>
<!-- Income (loss) and impairment from equity method investments&#45;&gt;$118 million -->
<g id="edge7" class="edge">
<title>Income (loss) and impairment from equity method investments&#45;&gt;$118 million</title>
<path fill="none" stroke="black" d="M1586.8,-71.7C1586.8,-64.41 1586.8,-55.73 1586.8,-47.54"/>
<polygon fill="black" stroke="black" points="1590.3,-47.62 1586.8,-37.62 1583.3,-47.62 1590.3,-47.62"/>
</g>
<!-- Other -->
<g id="node15" class="node">
<title>Other</title>
<ellipse fill="none" stroke="black" cx="1884.8" cy="-90" rx="31.9" ry="18"/>
<text text-anchor="middle" x="1884.8" y="-84.95" font-family="Times,serif" font-size="14.00">Other</text>
</g>
<!-- $259 million -->
<g id="node16" class="node">
<title>$259 million</title>
<ellipse fill="none" stroke="black" cx="1884.8" cy="-18" rx="59.03" ry="18"/>
<text text-anchor="middle" x="1884.8" y="-12.95" font-family="Times,serif" font-size="14.00">$259 million</text>
</g>
<!-- Other&#45;&gt;$259 million -->
<g id="edge8" class="edge">
<title>Other&#45;&gt;$259 million</title>
<path fill="none" stroke="black" d="M1884.8,-71.7C1884.8,-64.41 1884.8,-55.73 1884.8,-47.54"/>
<polygon fill="black" stroke="black" points="1888.3,-47.62 1884.8,-37.62 1881.3,-47.62 1888.3,-47.62"/>
</g>
<!-- Other income (expense) -->
<g id="node17" class="node">
<title>Other income (expense)</title>
<ellipse fill="none" stroke="black" cx="2034.8" cy="-90" rx="100.48" ry="18"/>
<text text-anchor="middle" x="2034.8" y="-84.95" font-family="Times,serif" font-size="14.00">Other income (expense)</text>
</g>
<!-- $439 million -->
<g id="node18" class="node">
<title>$439 million</title>
<ellipse fill="none" stroke="black" cx="2034.8" cy="-18" rx="59.03" ry="18"/>
<text text-anchor="middle" x="2034.8" y="-12.95" font-family="Times,serif" font-size="14.00">$439 million</text>
</g>
<!-- Other income (expense)&#45;&gt;$439 million -->
<g id="edge9" class="edge">
<title>Other income (expense)&#45;&gt;$439 million</title>
<path fill="none" stroke="black" d="M2034.8,-71.7C2034.8,-64.41 2034.8,-55.73 2034.8,-47.54"/>
<polygon fill="black" stroke="black" points="2038.3,-47.62 2034.8,-37.62 2031.3,-47.62 2038.3,-47.62"/>
</g>
<!-- Net cash provided by operating activities -->
<g id="node19" class="node">
<title>Net cash provided by operating activities</title>
<ellipse fill="none" stroke="black" cx="2316.8" cy="-90" rx="163.44" ry="18"/>
<text text-anchor="middle" x="2316.8" y="-84.95" font-family="Times,serif" font-size="14.00">Net cash provided by operating activities</text>
</g>
<!-- $28,666 million -->
<g id="node20" class="node">
<title>$28,666 million</title>
<ellipse fill="none" stroke="black" cx="2316.8" cy="-18" rx="70.8" ry="18"/>
<text text-anchor="middle" x="2316.8" y="-12.95" font-family="Times,serif" font-size="14.00">$28,666 million</text>
</g>
<!-- Net cash provided by operating activities&#45;&gt;$28,666 million -->
<g id="edge10" class="edge">
<title>Net cash provided by operating activities&#45;&gt;$28,666 million</title>
<path fill="none" stroke="black" d="M2316.8,-71.7C2316.8,-64.41 2316.8,-55.73 2316.8,-47.54"/>
<polygon fill="black" stroke="black" points="2320.3,-47.62 2316.8,-37.62 2313.3,-47.62 2320.3,-47.62"/>
</g>
<!-- Purchases of property and equipment -->
<g id="node21" class="node">
<title>Purchases of property and equipment</title>
<ellipse fill="none" stroke="black" cx="2647.8" cy="-90" rx="149.62" ry="18"/>
<text text-anchor="middle" x="2647.8" y="-84.95" font-family="Times,serif" font-size="14.00">Purchases of property and equipment</text>
</g>
<!-- $6,888 million -->
<g id="node22" class="node">
<title>$6,888 million</title>
<ellipse fill="none" stroke="black" cx="2647.8" cy="-18" rx="66.19" ry="18"/>
<text text-anchor="middle" x="2647.8" y="-12.95" font-family="Times,serif" font-size="14.00">$6,888 million</text>
</g>
<!-- Purchases of property and equipment&#45;&gt;$6,888 million -->
<g id="edge11" class="edge">
<title>Purchases of property and equipment&#45;&gt;$6,888 million</title>
<path fill="none" stroke="black" d="M2647.8,-71.7C2647.8,-64.41 2647.8,-55.73 2647.8,-47.54"/>
<polygon fill="black" stroke="black" points="2651.3,-47.62 2647.8,-37.62 2644.3,-47.62 2651.3,-47.62"/>
</g>
<!-- Free cash flow -->
<g id="node23" class="node">
<title>Free cash flow</title>
<ellipse fill="none" stroke="black" cx="2880.8" cy="-90" rx="65.68" ry="18"/>
<text text-anchor="middle" x="2880.8" y="-84.95" font-family="Times,serif" font-size="14.00">Free cash flow</text>
</g>
<!-- $21,778 million -->
<g id="node24" class="node">
<title>$21,778 million</title>
<ellipse fill="none" stroke="black" cx="2880.8" cy="-18" rx="70.8" ry="18"/>
<text text-anchor="middle" x="2880.8" y="-12.95" font-family="Times,serif" font-size="14.00">$21,778 million</text>
</g>
<!-- Free cash flow&#45;&gt;$21,778 million -->
<g id="edge12" class="edge">
<title>Free cash flow&#45;&gt;$21,778 million</title>
<path fill="none" stroke="black" d="M2880.8,-71.7C2880.8,-64.41 2880.8,-55.73 2880.8,-47.54"/>
<polygon fill="black" stroke="black" points="2884.3,-47.62 2880.8,-37.62 2877.3,-47.62 2884.3,-47.62"/>
</g>
</g>
</svg>
